<svg xmlns="http://www.w3.org/2000/svg" version="1.1" xmlns:xlink="http://www.w3.org/1999/xlink" xmlns:svgjs="http://svgjs.dev/svgjs" width="2000" height="681" viewBox="0 0 2000 681"><g transform="matrix(1,0,0,1,-1.2112696095522324,-0.27089967257614944)"><svg viewBox="0 0 396 135" data-background-color="#ffffff" preserveAspectRatio="xMidYMid meet" height="681" width="2000" xmlns="http://www.w3.org/2000/svg" xmlns:xlink="http://www.w3.org/1999/xlink"><g id="tight-bounds" transform="matrix(1,0,0,1,0.24008861730862918,0.05370257826399438)"><svg viewBox="0 0 395.52 134.892594843472" height="134.892594843472" width="395.52"><g><svg viewBox="0 0 395.52 134.892594843472" height="134.892594843472" width="395.52"><g><svg viewBox="0 0 395.52 134.892594843472" height="134.892594843472" width="395.52"><g id="textblocktransform"><svg viewBox="0 0 395.52 134.892594843472" height="134.892594843472" width="395.52" id="textblock"><g><svg viewBox="0 0 395.52 104.24814484857455" height="104.24814484857455" width="395.52"><path d="M394.594 22.359C392.735 11.538 387.435 8.53 387.435 8.53 371.165-2.615 350.86-0.213 332.619 1.388 300.414 1.453 268.339 3.834 236.208 5.111 168.767 5.305 100.749 2.102 33.643 10.002 27.339 12.426-6.54 10.478 1.121 23.744 3.129 29.263 10.456 35.388 10.232 40.452 11.236 41.339 12.631 39.305 13.226 40.582 15.309 44.023 18.711 42.4 21.501 44.434 17.614 49.866 20.403 54.389 23.062 59.129 18.377 60.362 12.371 59.778 9.675 63.868 9.396 66.833 7.89 66.271 6.235 66.141 5.026 66.054 2.59 66.379 2.999 67.309 4.394 70.491-1.594 72.33 2.162 75.447-0.422 78.823 3.948 81.744 3.353 85.402 3.278 86.138 3.687 86.765 4.338 86.938 7.22 87.869 3.018 89.687 3.464 91.656 33.029 105.118 65.104 95.812 95.394 102.001 103.259 97.673 97.346 103.538 100.489 102.629 102.943 101.568 104.728 105.962 107.499 103.473 107.927 102.759 107.276 101.071 108.8 101.395 109.6 101.568 110.307 101.525 110.418 100.53 110.586 99.036 109.117 99.967 108.726 99.188 112.947 95.249 111.906 104.62 115.866 104.23 115.68 103.083 114.528 101.439 116.889 101.655 119.232 100.01 119.306 98.647 121.389 102.347 121.463 103.148 121.835 103.711 122.43 104.1 128.938 100.075 135.409 105.529 142.233 103.711 146.417 101.72 150.433 104.793 154.672 104.036 156.16 103.43 157.666 102.347 159.098 104.165 176.632 104.555 195.319 102.932 211.943 104.23 256.364 101.806 303.836 105.226 350.674 102.023 361.719 100.789 373.192 99.036 383.958 97.63 383.958 97.63 392.679 93.777 392.679 76.464S394.538 61.315 394.817 47.529C395.096 33.743 396.398 33.18 394.538 22.359Z" opacity="1" fill="#0e5ddd" data-fill-palette-color="tertiary"></path><g transform="matrix(1,0,0,1,55.76832,26.068561146666667)"><svg width="283.98335999999995" viewBox="0.2 -34.86 191.55041666666398 35.15" height="52.11102255524121" data-palette-color="#ffffff"><path d="M10.25-31.74L10.25 0 6.86 0 6.86-31.74 0.2-31.74 0.2-34.86 16.94-34.86 16.94-31.74 10.25-31.74ZM24.95 0.27L24.95 0.27Q21.97 0.27 20.54-0.9 19.11-2.08 18.87-4.57L18.87-4.57Q18.85-5.05 18.81-5.54 18.77-6.03 18.82-6.49L18.82-6.49Q18.99-8.67 20.19-10.14 21.38-11.62 24.73-12.84L24.73-12.84Q26.1-13.33 27.61-13.72 29.12-14.11 30.61-14.48L30.61-14.48 30.61-18.99Q30.61-20.19 29.71-20.76 28.81-21.34 26.56-21.34L26.56-21.34Q24.61-21.34 23.59-20.85 22.58-20.36 22.48-19.07L22.48-19.07Q22.43-18.46 22.43-17.32 22.43-16.19 22.48-15.41L22.48-15.41 19.43-15.41Q19.38-16.02 19.33-16.99 19.28-17.97 19.36-18.73L19.36-18.73Q19.48-21.56 21.2-22.81 22.92-24.07 26.68-24.07L26.68-24.07Q30.61-24.07 32.14-22.71 33.66-21.34 33.69-18.21L33.69-18.21 33.69 0 30.61 0 30.61-2.25 29.93-2.25Q29.32-1.03 28.18-0.38 27.05 0.27 24.95 0.27ZM25.73-2.37L25.73-2.37Q29.25-2.37 30.59-4.47L30.59-4.47 30.59-11.87Q29.42-11.62 28.18-11.29 26.95-10.96 25.29-10.4L25.29-10.4Q23.31-9.67 22.65-8.72 21.99-7.76 21.9-6.49L21.9-6.49Q21.92-6.13 21.93-5.7 21.95-5.27 21.99-4.81L21.99-4.81Q22.17-3.64 23.17-3 24.17-2.37 25.73-2.37ZM41.94-31.69L41.94 0 38.76 0 38.76-31.69 41.94-31.69ZM54.44 0.29L54.44 0.29Q50.41 0.29 48.69-0.98 46.97-2.25 46.84-5.13L46.84-5.13Q46.75-6.93 46.71-9.38 46.67-11.82 46.71-14.28 46.75-16.75 46.84-18.58L46.84-18.58Q46.97-21.53 48.74-22.8 50.51-24.07 54.44-24.07L54.44-24.07Q58.15-24.07 59.81-22.83 61.47-21.58 61.64-18.73L61.64-18.73Q61.69-17.87 61.74-15.75 61.78-13.62 61.59-11.23L61.59-11.23 49.89-11.23Q49.89-9.69 49.92-8.11 49.94-6.52 50.02-4.81L50.02-4.81Q50.04-3.47 51.04-2.95 52.04-2.44 54.34-2.44L54.34-2.44Q56.61-2.44 57.54-2.95 58.46-3.47 58.56-4.81L58.56-4.81Q58.64-6.15 58.56-8.47L58.56-8.47 61.59-8.47Q61.71-7.76 61.7-6.82 61.69-5.88 61.64-5.13L61.64-5.13Q61.47-2.25 59.89-0.98 58.32 0.29 54.44 0.29ZM49.89-13.82L49.89-13.82 58.61-13.82Q58.66-15.48 58.66-16.99 58.66-18.51 58.56-19.07L58.56-19.07Q58.46-20.29 57.51-20.81 56.56-21.34 54.44-21.34L54.44-21.34Q52.07-21.34 51.05-20.81 50.04-20.29 50.02-19.07L50.02-19.07Q49.94-17.65 49.91-16.36 49.87-15.06 49.89-13.82ZM68.89-19.19L68.89 0 65.74 0 65.74-23.75 68.89-23.75 68.89-21.53 69.64-21.53Q70.4-22.75 71.63-23.41 72.87-24.07 74.75-24.07L74.75-24.07Q77.5-24.07 78.85-22.86 80.19-21.66 80.19-18.82L80.19-18.82 80.19 0 77.07 0 77.07-19.09Q77.07-20.31 76.3-20.86 75.53-21.41 73.82-21.41L73.82-21.41Q72.11-21.41 70.82-20.83 69.52-20.24 68.89-19.19L68.89-19.19ZM92.13 0.29L92.13 0.29Q88.32 0.29 86.99-0.98 85.66-2.25 85.66-5.13L85.66-5.13 85.66-21.02 83.31-21.02 83.31-23.75 85.73-23.75 85.73-30.49 88.83-30.49 88.83-23.75 94.2-23.75 94.2-21.02 88.81-21.02 88.81-4.79Q88.81-3.44 89.37-2.93 89.93-2.42 92.2-2.42L92.2-2.42Q93.13-2.42 93.63-2.45 94.13-2.49 94.79-2.51L94.79-2.51 94.79 0.1Q94.2 0.2 93.52 0.24 92.83 0.29 92.13 0.29ZM115.07-31.74L115.07 0 111.68 0 111.68-31.74 105.01-31.74 105.01-34.86 121.76-34.86 121.76-31.74 115.07-31.74ZM127.47-19.19L127.47 0 124.32 0 124.32-23.75 127.47-23.75 127.47-21.53 128.15-21.53Q128.79-22.75 129.84-23.41 130.89-24.07 132.45-24.07L132.45-24.07Q134.79-24.07 135.93-22.84 137.06-21.61 137.06-18.58L137.06-18.58Q137.06-17.92 137.02-17.02 136.97-16.11 136.87-15.41L136.87-15.41 133.84-15.41Q133.89-15.65 133.9-16.26 133.92-16.87 133.93-17.48 133.94-18.09 133.94-18.31L133.94-18.31Q133.94-20.12 133.33-20.76 132.72-21.41 131.38-21.41L131.38-21.41Q128.52-21.41 127.47-19.19L127.47-19.19ZM148 0.29L148 0.29Q144.02 0.29 142.38-1.07 140.75-2.44 140.63-5.62L140.63-5.62Q140.48-7.42 140.43-9.63 140.38-11.84 140.43-14.09 140.48-16.33 140.63-18.16L140.63-18.16Q140.75-21.34 142.4-22.71 144.04-24.07 148-24.07L148-24.07Q152-24.07 153.6-22.71 155.2-21.34 155.32-18.16L155.32-18.16Q155.47-16.36 155.52-14.15 155.57-11.94 155.52-9.7 155.47-7.47 155.32-5.62L155.32-5.62Q155.2-2.47 153.6-1.09 152 0.29 148 0.29ZM148-2.44L148-2.44Q150.25-2.44 151.2-2.99 152.15-3.54 152.22-4.81L152.22-4.81Q152.47-8.62 152.47-11.89 152.47-15.16 152.22-18.97L152.22-18.97Q152.15-20.26 151.22-20.8 150.29-21.34 148-21.34L148-21.34Q145.71-21.34 144.77-20.8 143.83-20.26 143.75-18.97L143.75-18.97Q143.53-15.16 143.52-11.88 143.51-8.59 143.75-4.81L143.75-4.81Q143.8-3.54 144.79-2.99 145.78-2.44 148-2.44ZM174.07-23.75L169.31 0 162.74 0 158.23-23.75 161.5-23.75 163.35-11.82 165.09-2.71 166.97-2.71 168.8-11.82 170.78-23.75 174.07-23.75ZM184.45 0.29L184.45 0.29Q180.42 0.29 178.7-0.98 176.97-2.25 176.85-5.13L176.85-5.13Q176.75-6.93 176.72-9.38 176.68-11.82 176.72-14.28 176.75-16.75 176.85-18.58L176.85-18.58Q176.97-21.53 178.74-22.8 180.51-24.07 184.45-24.07L184.45-24.07Q188.16-24.07 189.82-22.83 191.48-21.58 191.65-18.73L191.65-18.73Q191.7-17.87 191.74-15.75 191.79-13.62 191.6-11.23L191.6-11.23 179.9-11.23Q179.9-9.69 179.93-8.11 179.95-6.52 180.03-4.81L180.03-4.81Q180.05-3.47 181.05-2.95 182.05-2.44 184.35-2.44L184.35-2.44Q186.62-2.44 187.55-2.95 188.47-3.47 188.57-4.81L188.57-4.81Q188.64-6.15 188.57-8.47L188.57-8.47 191.6-8.47Q191.72-7.76 191.71-6.82 191.7-5.88 191.65-5.13L191.65-5.13Q191.48-2.25 189.9-0.98 188.33 0.29 184.45 0.29ZM179.9-13.82L179.9-13.82 188.62-13.82Q188.67-15.48 188.67-16.99 188.67-18.51 188.57-19.07L188.57-19.07Q188.47-20.29 187.52-20.81 186.57-21.34 184.45-21.34L184.45-21.34Q182.08-21.34 181.06-20.81 180.05-20.29 180.03-19.07L180.03-19.07Q179.95-17.65 179.92-16.36 179.88-15.06 179.9-13.82Z" opacity="1" transform="matrix(1,0,0,1,0,0)" fill="#ffffff" class="wordmark-text-0" data-fill-palette-color="quaternary" id="text-0"></path></svg></g></svg></g><g transform="matrix(1,0,0,1,75.54432,116.55030660932567)"><svg viewBox="0 0 244.43135999999998 18.342288234146345" height="18.342288234146345" width="244.43135999999998"><g transform="matrix(1,0,0,1,0,0)"><svg width="244.43135999999998" viewBox="0.05 -32.35 614.9300000000001 46.150000000000006" height="18.342288234146345" data-palette-color="#0e5ddd"><path d="M12.15 0.2L12.15 0.2Q10.6 0.2 9.8-0.48 9-1.15 9-2.85L9-2.85Q9-4.15 9.43-6.48 9.85-8.8 10.65-11.65L10.65-11.65Q10.25-13.65 9.68-15.83 9.1-18 8.35-19.95L8.35-19.95Q7.4-22.6 6.05-24.4 4.7-26.2 2.85-26.2L2.85-26.2Q2.5-26.2 2.18-26.15 1.85-26.1 1.6-26L1.6-26Q1.1-25.9 0.58-26.7 0.05-27.5 0.05-28.6L0.05-28.6Q0.05-30 1.03-31.08 2-32.15 3.7-32.15L3.7-32.15Q5.8-32.15 7.58-30.78 9.35-29.4 10.73-26.15 12.1-22.9 12.95-17.3L12.95-17.3Q13.85-19.6 15.13-22.18 16.4-24.75 18-27.03 19.6-29.3 21.45-30.73 23.3-32.15 25.35-32.15L25.35-32.15Q26.7-32.15 27.43-31.5 28.15-30.85 28.15-29.7L28.15-29.7Q28.15-28.9 27.83-28 27.5-27.1 26.95-26.45 26.4-25.8 25.8-25.8L25.8-25.8Q25.6-25.8 25.38-25.83 25.15-25.85 24.9-25.95L24.9-25.95Q24.4-26.2 23.75-26.2L23.75-26.2Q22.15-26.2 20.25-24 18.35-21.8 16.5-17.2L16.5-17.2Q14.6-12.35 14.6-7.8L14.6-7.8Q14.6-6.75 14.88-5.73 15.15-4.7 15.9-3.85L15.9-3.85Q16.4-3.1 16.4-2.45L16.4-2.45Q16.4-1.35 15.2-0.58 14 0.2 12.15 0.2ZM31.3 0.65L31.3 0.65Q27.85 0.65 25.77-1.23 23.7-3.1 23.7-6.75L23.7-6.75Q23.7-8.45 24.17-10.05 24.65-11.65 25.45-13.05L25.45-13.05Q24.65-12.55 24.25-12.55L24.25-12.55Q23.65-12.55 23.42-13.23 23.2-13.9 23.2-14.55L23.2-14.55Q23.2-15.7 23.67-16.38 24.15-17.05 24.6-17.4L24.6-17.4Q25.65-18.3 27.9-19.38 30.15-20.45 33.3-20.45L33.3-20.45Q37.6-20.45 39.97-18.05 42.35-15.65 42.35-11.35L42.35-11.35Q42.35-8 40.95-5.28 39.55-2.55 37.07-0.95 34.6 0.65 31.3 0.65ZM32.85-4.45L32.85-4.45Q35.35-4.45 37.07-6.03 38.8-7.6 38.8-10.2L38.8-10.2Q38.8-12.9 37.05-14.05 35.3-15.2 33-15.2L33-15.2Q31.95-15.2 31.1-15 30.25-14.8 29.5-14.5L29.5-14.5Q28.8-13.5 28.25-12.25 27.7-11 27.7-9.5L27.7-9.5Q27.7-7 29.2-5.73 30.7-4.45 32.85-4.45ZM52.45 0.65L52.45 0.65Q49.95 0.65 48.57-0.8 47.2-2.25 47.2-5L47.2-5Q47.2-6.95 47.75-9L47.75-9Q48-9.85 48.15-10.7 48.3-11.55 48.3-12.4L48.3-12.4Q48.3-14.6 46.95-15.25L46.95-15.25Q45.65-15.95 45.65-16.75L45.65-16.75Q45.65-17.55 46.32-18.35 47-19.15 48-19.68 49-20.2 50-20.2L50-20.2Q52.84-20.2 52.84-15.55L52.84-15.55Q52.84-14.05 52.62-12.78 52.4-11.5 52.09-10.35L52.09-10.35Q51.9-9.55 51.77-8.75 51.65-7.95 51.65-7.35L51.65-7.35Q51.65-4.85 54.09-4.85L54.09-4.85Q56.4-4.85 58.4-7.3 60.4-9.75 61.7-14.15L61.7-14.15 61.65-15.1Q61.55-17.6 62.52-18.9 63.5-20.2 65.4-20.2L65.4-20.2Q67.05-20.2 67.05-19.15L67.05-19.15Q67.05-18.8 66.92-18.25 66.8-17.7 66.55-16.95L66.55-16.95Q66.05-15.1 65.7-13.03 65.34-10.95 65.34-9.2L65.34-9.2Q65.34-7.25 65.95-5.98 66.55-4.7 68.2-4.25L68.2-4.25Q68.65-4.2 68.92-3.98 69.2-3.75 69.2-3.05L69.2-3.05Q69.2-1.85 68.2-0.7 67.2 0.45 65.3 0.45L65.3 0.45Q61.65 0.45 61.65-4.7L61.65-4.7Q61.65-5.6 61.8-7.4L61.8-7.4 61.7-7.45Q58.55 0.65 52.45 0.65ZM75.04 0.55L75.04 0.55Q74.24 0.55 73.77 0.28 73.29 0 73.44-0.65L73.44-0.65Q73.99-2.8 74.37-5.03 74.74-7.25 74.74-9.3L74.74-9.3Q74.74-11.95 74.42-13.18 74.09-14.4 73.54-14.88 72.99-15.35 72.19-15.6L72.19-15.6Q71.84-15.75 71.57-16 71.29-16.25 71.29-16.7L71.29-16.7Q71.29-17.4 71.84-18.25 72.39-19.1 73.39-19.73 74.39-20.35 75.69-20.35L75.69-20.35Q77.39-20.35 78.07-19.18 78.74-18 78.74-16.1L78.74-16.1Q79.64-18.1 80.97-19.28 82.29-20.45 84.29-20.45L84.29-20.45Q85.64-20.45 86.54-19.85 87.44-19.25 87.44-17.9L87.44-17.9Q87.44-16.55 86.57-15.38 85.69-14.2 84.79-14.2L84.79-14.2Q84.64-14.2 84.44-14.25 84.24-14.3 84.09-14.5L84.09-14.5Q83.44-15.3 82.49-15.3L82.49-15.3Q81.04-15.3 79.94-13.4 78.84-11.5 78.74-8.15L78.74-8.15Q78.79-6.9 78.82-5.6 78.84-4.3 78.84-3.7L78.84-3.7Q78.84-1.85 77.82-0.65 76.79 0.55 75.04 0.55ZM113.54 0.65L113.54 0.65Q110.09 0.65 107.34-0.9 104.59-2.45 102.99-5.4 101.39-8.35 101.39-12.55L101.39-12.55Q101.39-16.35 102.66-19.88 103.94-23.4 106.29-26.23 108.64-29.05 111.99-30.7 115.34-32.35 119.44-32.35L119.44-32.35Q122.44-32.35 124.44-31.4 126.44-30.45 126.44-28.6L126.44-28.6Q126.44-27.7 125.96-26.83 125.49-25.95 124.74-25.35 123.99-24.75 123.19-24.75L123.19-24.75Q122.69-24.75 122.39-25L122.39-25Q119.79-26.75 116.49-26.75L116.49-26.75Q112.99-26.75 110.59-25.13 108.19-23.5 106.96-20.85 105.74-18.2 105.74-15.1L105.74-15.1Q105.74-10.45 108.36-7.7 110.99-4.95 115.39-4.95L115.39-4.95Q117.29-4.95 118.94-5.5 120.59-6.05 121.64-7.1 122.69-8.15 122.69-9.65L122.69-9.65Q122.69-11.15 121.79-11.95 120.89-12.75 119.44-13.13 117.99-13.5 116.29-13.6L116.29-13.6Q115.09-13.7 114.51-13.9 113.94-14.1 113.94-15.1L113.94-15.1Q113.94-16.3 114.69-17.1 115.44-17.9 116.54-18L116.54-18Q118.04-18.15 120.14-18.23 122.24-18.3 124.51-18.32 126.79-18.35 128.79-18.35L128.79-18.35Q129.44-18.35 129.79-18.13 130.14-17.9 130.14-17.2L130.14-17.2Q130.14-16.35 129.76-15.35 129.39-14.35 128.74-13.65 128.09-12.95 127.24-12.95L127.24-12.95 126.44-12.95Q126.59-12.45 126.71-11.83 126.84-11.2 126.84-10.4L126.84-10.4Q126.84-8.2 125.79-6.23 124.74-4.25 122.89-2.7 121.04-1.15 118.64-0.25 116.24 0.65 113.54 0.65ZM138.34 0.65L138.34 0.65Q135.34 0.65 133.51-1.23 131.69-3.1 131.69-6.6L131.69-6.6Q131.69-9.1 132.66-11.58 133.64-14.05 135.49-16.05 137.34-18.05 139.94-19.25 142.54-20.45 145.79-20.45L145.79-20.45Q148.79-20.45 150.91-19.43 153.04-18.4 153.04-16.65L153.04-16.65Q153.04-16.2 152.94-15.48 152.84-14.75 152.69-14.3L152.69-14.3Q152.54-13.9 152.26-13.58 151.99-13.25 151.54-13.25L151.54-13.25Q151.34-13.25 150.79-13.4L150.79-13.4Q150.59-12.35 150.49-11.35 150.39-10.35 150.39-9.35L150.39-9.35Q150.39-7.45 150.96-5.98 151.54-4.5 153.24-4.15L153.24-4.15Q153.69-4.05 153.96-3.85 154.24-3.65 154.24-3L154.24-3Q154.24-2.45 153.96-1.6 153.69-0.75 152.91-0.08 152.14 0.6 150.69 0.6L150.69 0.6Q148.74 0.6 147.69-0.83 146.64-2.25 146.64-4.9L146.64-4.9Q145.29-2.45 143.21-0.9 141.14 0.65 138.34 0.65ZM139.94-4.55L139.94-4.55Q141.94-4.55 143.46-5.8 144.99-7.05 145.84-8.95L145.84-8.95Q146.39-10.15 146.69-11.58 146.99-13 147.09-14.4L147.09-14.4Q146.24-14.8 145.14-15.05 144.04-15.3 142.84-15.3L142.84-15.3Q139.79-15.3 137.81-13.5 135.84-11.7 135.84-9L135.84-9Q135.84-7 136.94-5.78 138.04-4.55 139.94-4.55ZM164.63 0.65L164.63 0.65Q161.58 0.65 160.26-1.38 158.93-3.4 158.93-6.6L158.93-6.6Q158.93-7.75 159.06-8.85 159.18-9.95 159.33-11.05L159.33-11.05Q159.48-12.15 159.63-13.2 159.78-14.25 159.88-15.2L159.88-15.2Q158.83-14.9 157.78-14.9L157.78-14.9Q156.68-14.9 156.68-15.8L156.68-15.8Q156.68-16.75 157.53-18.13 158.38-19.5 159.66-20.85 160.93-22.2 162.21-23.13 163.48-24.05 164.38-24.05L164.38-24.05Q165.48-24.05 165.48-22.15L165.48-22.15Q165.48-21.65 165.41-21.13 165.33-20.6 165.23-20.05L165.23-20.05Q166.18-20.25 167.16-20.4 168.13-20.55 169.03-20.55L169.03-20.55Q170.18-20.55 170.81-20.15 171.43-19.75 171.43-18.6L171.43-18.6Q171.43-17.4 170.86-16.2 170.28-15 169.58-15L169.58-15Q169.43-15 169.08-15.05 168.73-15.1 168.23-15.2L168.23-15.2Q167.58-15.35 166.58-15.5 165.58-15.65 164.18-15.65L164.18-15.65Q163.83-14.1 163.56-12.48 163.28-10.85 163.28-9.55L163.28-9.55Q163.28-6.65 164.73-5.6 166.18-4.55 168.93-4.55L168.93-4.55Q169.78-4.55 170.13-4.28 170.48-4 170.48-3.3L170.48-3.3Q170.48-1.65 168.78-0.5 167.08 0.65 164.63 0.65ZM181.53 0.65L181.53 0.65Q177.73 0.65 175.61-1.53 173.48-3.7 173.48-7.6L173.48-7.6Q173.48-11.15 175.03-14.05 176.58-16.95 179.21-18.68 181.83-20.4 184.98-20.4L184.98-20.4Q187.98-20.4 189.78-18.93 191.58-17.45 191.58-15L191.58-15Q191.58-13.05 190.38-11.4 189.18-9.75 187.18-8.78 185.18-7.8 182.73-7.8L182.73-7.8Q179.73-7.8 177.83-9.15L177.83-9.15Q177.88-6.85 179.41-5.45 180.93-4.05 183.33-4.05L183.33-4.05Q184.78-4.05 186.31-4.58 187.83-5.1 188.93-6L188.93-6Q189.63-6.6 190.23-6.6L190.23-6.6Q190.73-6.6 191.06-6.28 191.38-5.95 191.38-5.45L191.38-5.45Q191.38-4.35 189.48-2.55L189.48-2.55Q186.13 0.65 181.53 0.65ZM182.28-11.1L182.28-11.1Q184.08-11.1 185.28-11.85 186.48-12.6 186.48-13.75L186.48-13.75Q186.48-14.7 185.68-15.23 184.88-15.75 183.48-15.75L183.48-15.75Q181.63-15.75 180.26-14.78 178.88-13.8 178.28-12.05L178.28-12.05Q178.98-11.6 180.08-11.35 181.18-11.1 182.28-11.1ZM202.28 0.7L202.28 0.7Q200.88 0.7 199.9-0.13 198.93-0.95 198.78-3.2L198.78-3.2Q198.68-4.9 198.35-7 198.03-9.1 197.58-10.95 197.13-12.8 196.53-13.75L196.53-13.75Q196.18-14.3 195.75-14.58 195.33-14.85 194.48-14.95L194.48-14.95Q193.58-15 193.58-16.25L193.58-16.25Q193.58-18.3 194.68-19.28 195.78-20.25 197.18-20.25L197.18-20.25Q198.68-20.25 199.63-19.28 200.58-18.3 201.1-16.68 201.63-15.05 201.85-13.05 202.08-11.05 202.08-9L202.08-9Q202.08-8.25 202.05-7.53 202.03-6.8 202.03-6.1L202.03-6.1Q202.03-5.6 202.23-5.28 202.43-4.95 203.23-4.95L203.23-4.95Q204.33-4.95 205.83-5.53 207.33-6.1 208.45-7.45 209.58-8.8 209.58-11.05L209.58-11.05Q209.58-12.2 209.23-12.98 208.88-13.75 208.28-14.45L208.28-14.45Q208.08-14.7 207.93-14.95 207.78-15.2 207.78-15.55L207.78-15.55Q207.78-16.5 208.55-17.07 209.33-17.65 210.3-17.93 211.28-18.2 211.93-18.2L211.93-18.2Q212.58-18.2 212.95-17.88 213.33-17.55 213.53-16.6L213.53-16.6Q213.73-15.95 213.83-15.18 213.93-14.4 213.93-13.4L213.93-13.4Q213.93-11.85 213.8-10.9 213.68-9.95 213.53-9.2L213.53-9.2Q213.38-8.55 213.3-7.93 213.23-7.3 213.23-6.45L213.23-6.45Q213.23-5.55 213.58-5.25 213.93-4.95 214.68-4.95L214.68-4.95Q217.53-4.95 219.33-6.93 221.13-8.9 221.13-11.75L221.13-11.75Q221.13-12.75 220.83-13.63 220.53-14.5 219.78-15.3L219.78-15.3Q219.38-15.8 219.13-16.13 218.88-16.45 218.88-16.95L218.88-16.95Q218.88-17.85 219.7-18.6 220.53-19.35 221.65-19.83 222.78-20.3 223.68-20.3L223.68-20.3Q225.03-20.3 225.43-19.05 225.83-17.8 225.83-16.2L225.83-16.2Q225.83-13.5 225.05-10.58 224.28-7.65 222.83-5.08 221.38-2.5 219.28-0.9 217.18 0.7 214.53 0.7L214.53 0.7Q211.83 0.7 210.83-0.85 209.83-2.4 209.98-4.6L209.98-4.6Q208.48-2.3 206.45-0.8 204.43 0.7 202.28 0.7ZM234.98 0.65L234.98 0.65Q231.98 0.65 230.15-1.23 228.33-3.1 228.33-6.6L228.33-6.6Q228.33-9.1 229.3-11.58 230.28-14.05 232.13-16.05 233.98-18.05 236.58-19.25 239.18-20.45 242.43-20.45L242.43-20.45Q245.43-20.45 247.55-19.43 249.68-18.4 249.68-16.65L249.68-16.65Q249.68-16.2 249.58-15.48 249.48-14.75 249.33-14.3L249.33-14.3Q249.18-13.9 248.9-13.58 248.63-13.25 248.18-13.25L248.18-13.25Q247.98-13.25 247.43-13.4L247.43-13.4Q247.23-12.35 247.13-11.35 247.03-10.35 247.03-9.35L247.03-9.35Q247.03-7.45 247.6-5.98 248.18-4.5 249.88-4.15L249.88-4.15Q250.33-4.05 250.6-3.85 250.88-3.65 250.88-3L250.88-3Q250.88-2.45 250.6-1.6 250.33-0.75 249.55-0.08 248.78 0.6 247.33 0.6L247.33 0.6Q245.38 0.6 244.33-0.83 243.28-2.25 243.28-4.9L243.28-4.9Q241.93-2.45 239.85-0.9 237.78 0.65 234.98 0.65ZM236.58-4.55L236.58-4.55Q238.58-4.55 240.1-5.8 241.63-7.05 242.48-8.95L242.48-8.95Q243.03-10.15 243.33-11.58 243.63-13 243.73-14.4L243.73-14.4Q242.88-14.8 241.78-15.05 240.68-15.3 239.48-15.3L239.48-15.3Q236.43-15.3 234.45-13.5 232.48-11.7 232.48-9L232.48-9Q232.48-7 233.58-5.78 234.68-4.55 236.58-4.55ZM255.37 13.8L255.37 13.8Q253.32 13.8 251.85 12.7 250.37 11.6 250.37 9.75L250.37 9.75Q250.37 8.3 251.25 7.28 252.12 6.25 253.42 6.25L253.42 6.25Q254.02 6.25 254.27 6.45 254.52 6.65 254.67 6.9L254.67 6.9Q255.07 7.55 255.6 8.03 256.12 8.5 257.02 8.5L257.02 8.5Q258.22 8.5 259.35 7.65 260.47 6.8 261.42 5.7L261.42 5.7Q262.27 4.75 263.47 2.98 264.67 1.2 265.87-1.05L265.87-1.05Q264.77-0.1 263.82 0.33 262.87 0.75 262.02 0.75L262.02 0.75Q260.97 0.75 259.97-0.03 258.97-0.8 258.72-2.95L258.72-2.95Q258.57-4.6 258.15-6.6 257.72-8.6 257.1-10.48 256.47-12.35 255.57-13.65L255.57-13.65Q255.22-14.25 254.77-14.55 254.32-14.85 253.47-14.95L253.47-14.95Q252.87-15 252.7-15.3 252.52-15.6 252.52-16.25L252.52-16.25Q252.52-18.05 253.52-19.15 254.52-20.25 256.22-20.25L256.22-20.25Q258.27-20.25 259.17-18.68 260.07-17.1 260.72-14.85L260.72-14.85Q260.97-13.95 261.25-12.48 261.52-11 261.75-9.3 261.97-7.6 262.07-6.05L262.07-6.05Q262.12-4.95 263.32-4.95L263.32-4.95Q264.92-4.95 266.37-5.95 267.82-6.95 268.75-8.55 269.67-10.15 269.67-11.9L269.67-11.9Q269.67-12.9 269.42-13.7 269.17-14.5 268.57-15.1L268.57-15.1Q268.07-15.7 267.77-16.07 267.47-16.45 267.47-16.95L267.47-16.95Q267.47-17.8 268.27-18.55 269.07-19.3 270.2-19.8 271.32-20.3 272.17-20.3L272.17-20.3Q273.67-20.3 274.17-18.88 274.67-17.45 274.42-15.75L274.42-15.75Q274.12-13.4 273.22-10.2 272.32-7 270.9-3.5 269.47 0 267.65 3.28 265.82 6.55 263.77 9L263.77 9Q262.02 11.15 259.87 12.48 257.72 13.8 255.37 13.8ZM297.97 0.65L297.97 0.65Q294.92 0.65 293.59-1.38 292.27-3.4 292.27-6.6L292.27-6.6Q292.27-7.75 292.39-8.85 292.52-9.95 292.67-11.05L292.67-11.05Q292.82-12.15 292.97-13.2 293.12-14.25 293.22-15.2L293.22-15.2Q292.17-14.9 291.12-14.9L291.12-14.9Q290.02-14.9 290.02-15.8L290.02-15.8Q290.02-16.75 290.87-18.13 291.72-19.5 292.99-20.85 294.27-22.2 295.54-23.13 296.82-24.05 297.72-24.05L297.72-24.05Q298.82-24.05 298.82-22.15L298.82-22.15Q298.82-21.65 298.74-21.13 298.67-20.6 298.57-20.05L298.57-20.05Q299.52-20.25 300.49-20.4 301.47-20.55 302.37-20.55L302.37-20.55Q303.52-20.55 304.14-20.15 304.77-19.75 304.77-18.6L304.77-18.6Q304.77-17.4 304.19-16.2 303.62-15 302.92-15L302.92-15Q302.77-15 302.42-15.05 302.07-15.1 301.57-15.2L301.57-15.2Q300.92-15.35 299.92-15.5 298.92-15.65 297.52-15.65L297.52-15.65Q297.17-14.1 296.89-12.48 296.62-10.85 296.62-9.55L296.62-9.55Q296.62-6.65 298.07-5.6 299.52-4.55 302.27-4.55L302.27-4.55Q303.12-4.55 303.47-4.28 303.82-4 303.82-3.3L303.82-3.3Q303.82-1.65 302.12-0.5 300.42 0.65 297.97 0.65ZM315.32 0.65L315.32 0.65Q311.87 0.65 309.79-1.23 307.72-3.1 307.72-6.75L307.72-6.75Q307.72-8.45 308.19-10.05 308.67-11.65 309.47-13.05L309.47-13.05Q308.67-12.55 308.27-12.55L308.27-12.55Q307.67-12.55 307.44-13.23 307.22-13.9 307.22-14.55L307.22-14.55Q307.22-15.7 307.69-16.38 308.17-17.05 308.62-17.4L308.62-17.4Q309.67-18.3 311.92-19.38 314.17-20.45 317.32-20.45L317.32-20.45Q321.62-20.45 323.99-18.05 326.37-15.65 326.37-11.35L326.37-11.35Q326.37-8 324.97-5.28 323.57-2.55 321.09-0.95 318.62 0.65 315.32 0.65ZM316.87-4.45L316.87-4.45Q319.37-4.45 321.09-6.03 322.82-7.6 322.82-10.2L322.82-10.2Q322.82-12.9 321.07-14.05 319.32-15.2 317.02-15.2L317.02-15.2Q315.97-15.2 315.12-15 314.27-14.8 313.52-14.5L313.52-14.5Q312.82-13.5 312.27-12.25 311.72-11 311.72-9.5L311.72-9.5Q311.72-7 313.22-5.73 314.72-4.45 316.87-4.45ZM355.56 0.65L355.56 0.65Q350.41 0.65 347.34-2.38 344.26-5.4 344.26-11.3L344.26-11.3Q344.26-13.95 344.99-16.8 345.71-19.65 347.41-22.45L347.41-22.45Q346.46-21.6 345.61-21.6L345.61-21.6Q344.16-21.6 344.16-23.9L344.16-23.9Q344.16-25.55 344.86-26.55 345.56-27.55 346.21-28.15L346.21-28.15Q347.31-29.1 349.01-30.08 350.71-31.05 353.01-31.7 355.31-32.35 358.16-32.35L358.16-32.35Q364.86-32.35 368.24-28.58 371.61-24.8 371.61-18.1L371.61-18.1Q371.61-14.15 370.46-10.75 369.31-7.35 367.19-4.8 365.06-2.25 362.11-0.8 359.16 0.65 355.56 0.65ZM357.31-4.95L357.31-4.95Q359.81-4.95 362.24-6.1 364.66-7.25 366.24-9.78 367.81-12.3 367.81-16.35L367.81-16.35Q367.81-20.15 366.36-22.43 364.91-24.7 362.69-25.73 360.46-26.75 358.01-26.75L358.01-26.75Q356.16-26.75 354.69-26.28 353.21-25.8 352.06-25.25L352.06-25.25Q350.76-23.25 349.61-20.38 348.46-17.5 348.46-14.3L348.46-14.3Q348.46-11.1 349.71-9.03 350.96-6.95 352.99-5.95 355.01-4.95 357.31-4.95ZM378.66 13.8L378.66 13.8Q377.16 13.8 376.31 12.98 375.46 12.15 375.46 10L375.46 10Q375.46 8.55 375.78 6.35 376.11 4.15 376.56 1.7L376.56 1.7Q376.91-0.25 377.23-2.4 377.56-4.55 377.78-6.63 378.01-8.7 378.01-10.35L378.01-10.35Q378.01-12.25 377.58-13.65 377.16-15.05 375.86-15.45L375.86-15.45Q375.36-15.65 374.96-15.9 374.56-16.15 374.56-16.7L374.56-16.7Q374.56-17.4 375.11-18.25 375.66-19.1 376.68-19.73 377.71-20.35 379.01-20.35L379.01-20.35Q380.71-20.35 381.36-19.18 382.01-18 382.01-16.1L382.01-16.1Q382.01-15.55 381.96-14.98 381.91-14.4 381.81-13.8L381.81-13.8Q383.26-16.6 385.63-18.53 388.01-20.45 391.01-20.45L391.01-20.45Q394.01-20.45 395.73-18.43 397.46-16.4 397.46-12.95L397.46-12.95Q397.46-10.4 396.66-7.98 395.86-5.55 394.41-3.6 392.96-1.65 390.93-0.5 388.91 0.65 386.41 0.65L386.41 0.65Q384.61 0.65 383.26 0.03 381.91-0.6 380.91-1.6L380.91-1.6Q380.71-0.3 380.53 1.55 380.36 3.4 380.36 5L380.36 5Q380.36 6.85 380.78 7.9 381.21 8.95 382.46 9.5L382.46 9.5Q383.01 9.75 383.01 10.3L383.01 10.3Q383.01 10.7 382.61 11.55 382.21 12.4 381.28 13.1 380.36 13.8 378.66 13.8ZM387.56-4.75L387.56-4.75Q390.41-4.75 391.96-6.55 393.51-8.35 393.51-10.7L393.51-10.7Q393.51-12.75 392.41-13.88 391.31-15 389.46-15L389.46-15Q387.56-15 386.11-13.88 384.66-12.75 383.63-10.95 382.61-9.15 381.96-7.1L381.96-7.1Q384.46-4.75 387.56-4.75ZM404.16 13.8L404.16 13.8Q402.66 13.8 401.81 12.98 400.96 12.15 400.96 10L400.96 10Q400.96 8.55 401.28 6.35 401.61 4.15 402.06 1.7L402.06 1.7Q402.41-0.25 402.73-2.4 403.06-4.55 403.28-6.63 403.51-8.7 403.51-10.35L403.51-10.35Q403.51-12.25 403.08-13.65 402.66-15.05 401.36-15.45L401.36-15.45Q400.86-15.65 400.46-15.9 400.06-16.15 400.06-16.7L400.06-16.7Q400.06-17.4 400.61-18.25 401.16-19.1 402.18-19.73 403.21-20.35 404.51-20.35L404.51-20.35Q406.21-20.35 406.86-19.18 407.51-18 407.51-16.1L407.51-16.1Q407.51-15.55 407.46-14.98 407.41-14.4 407.31-13.8L407.31-13.8Q408.76-16.6 411.13-18.53 413.51-20.45 416.51-20.45L416.51-20.45Q419.51-20.45 421.23-18.43 422.96-16.4 422.96-12.95L422.96-12.95Q422.96-10.4 422.16-7.98 421.36-5.55 419.91-3.6 418.46-1.65 416.43-0.5 414.41 0.65 411.91 0.65L411.91 0.65Q410.11 0.65 408.76 0.03 407.41-0.6 406.41-1.6L406.41-1.6Q406.21-0.3 406.03 1.55 405.86 3.4 405.86 5L405.86 5Q405.86 6.85 406.28 7.9 406.71 8.95 407.96 9.5L407.96 9.5Q408.51 9.75 408.51 10.3L408.51 10.3Q408.51 10.7 408.11 11.55 407.71 12.4 406.78 13.1 405.86 13.8 404.16 13.8ZM413.06-4.75L413.06-4.75Q415.91-4.75 417.46-6.55 419.01-8.35 419.01-10.7L419.01-10.7Q419.01-12.75 417.91-13.88 416.81-15 414.96-15L414.96-15Q413.06-15 411.61-13.88 410.16-12.75 409.13-10.95 408.11-9.15 407.46-7.1L407.46-7.1Q409.96-4.75 413.06-4.75ZM434.7 0.65L434.7 0.65Q431.25 0.65 429.18-1.23 427.1-3.1 427.1-6.75L427.1-6.75Q427.1-8.45 427.58-10.05 428.05-11.65 428.85-13.05L428.85-13.05Q428.05-12.55 427.65-12.55L427.65-12.55Q427.05-12.55 426.83-13.23 426.6-13.9 426.6-14.55L426.6-14.55Q426.6-15.7 427.08-16.38 427.55-17.05 428-17.4L428-17.4Q429.05-18.3 431.3-19.38 433.55-20.45 436.7-20.45L436.7-20.45Q441-20.45 443.38-18.05 445.75-15.65 445.75-11.35L445.75-11.35Q445.75-8 444.35-5.28 442.95-2.55 440.48-0.95 438 0.65 434.7 0.65ZM436.25-4.45L436.25-4.45Q438.75-4.45 440.48-6.03 442.2-7.6 442.2-10.2L442.2-10.2Q442.2-12.9 440.45-14.05 438.7-15.2 436.4-15.2L436.4-15.2Q435.35-15.2 434.5-15 433.65-14.8 432.9-14.5L432.9-14.5Q432.2-13.5 431.65-12.25 431.1-11 431.1-9.5L431.1-9.5Q431.1-7 432.6-5.73 434.1-4.45 436.25-4.45ZM452.6 0.55L452.6 0.55Q451.8 0.55 451.33 0.28 450.85 0 451-0.65L451-0.65Q451.55-2.8 451.93-5.03 452.3-7.25 452.3-9.3L452.3-9.3Q452.3-11.95 451.98-13.18 451.65-14.4 451.1-14.88 450.55-15.35 449.75-15.6L449.75-15.6Q449.4-15.75 449.13-16 448.85-16.25 448.85-16.7L448.85-16.7Q448.85-17.4 449.4-18.25 449.95-19.1 450.95-19.73 451.95-20.35 453.25-20.35L453.25-20.35Q454.95-20.35 455.63-19.18 456.3-18 456.3-16.1L456.3-16.1Q457.2-18.1 458.53-19.28 459.85-20.45 461.85-20.45L461.85-20.45Q463.2-20.45 464.1-19.85 465-19.25 465-17.9L465-17.9Q465-16.55 464.13-15.38 463.25-14.2 462.35-14.2L462.35-14.2Q462.2-14.2 462-14.25 461.8-14.3 461.65-14.5L461.65-14.5Q461-15.3 460.05-15.3L460.05-15.3Q458.6-15.3 457.5-13.4 456.4-11.5 456.3-8.15L456.3-8.15Q456.35-6.9 456.38-5.6 456.4-4.3 456.4-3.7L456.4-3.7Q456.4-1.85 455.38-0.65 454.35 0.55 452.6 0.55ZM473.55 0.65L473.55 0.65Q470.5 0.65 469.17-1.38 467.85-3.4 467.85-6.6L467.85-6.6Q467.85-7.75 467.97-8.85 468.1-9.95 468.25-11.05L468.25-11.05Q468.4-12.15 468.55-13.2 468.7-14.25 468.8-15.2L468.8-15.2Q467.75-14.9 466.7-14.9L466.7-14.9Q465.6-14.9 465.6-15.8L465.6-15.8Q465.6-16.75 466.45-18.13 467.3-19.5 468.57-20.85 469.85-22.2 471.12-23.13 472.4-24.05 473.3-24.05L473.3-24.05Q474.4-24.05 474.4-22.15L474.4-22.15Q474.4-21.65 474.32-21.13 474.25-20.6 474.15-20.05L474.15-20.05Q475.1-20.25 476.07-20.4 477.05-20.55 477.95-20.55L477.95-20.55Q479.1-20.55 479.72-20.15 480.35-19.75 480.35-18.6L480.35-18.6Q480.35-17.4 479.77-16.2 479.2-15 478.5-15L478.5-15Q478.35-15 478-15.05 477.65-15.1 477.15-15.2L477.15-15.2Q476.5-15.35 475.5-15.5 474.5-15.65 473.1-15.65L473.1-15.65Q472.75-14.1 472.47-12.48 472.2-10.85 472.2-9.55L472.2-9.55Q472.2-6.65 473.65-5.6 475.1-4.55 477.85-4.55L477.85-4.55Q478.7-4.55 479.05-4.28 479.4-4 479.4-3.3L479.4-3.3Q479.4-1.65 477.7-0.5 476 0.65 473.55 0.65ZM489.25 0.65L489.25 0.65Q486.75 0.65 485.37-0.8 484-2.25 484-5L484-5Q484-6.95 484.55-9L484.55-9Q484.8-9.85 484.95-10.7 485.1-11.55 485.1-12.4L485.1-12.4Q485.1-14.6 483.75-15.25L483.75-15.25Q482.45-15.95 482.45-16.75L482.45-16.75Q482.45-17.55 483.12-18.35 483.8-19.15 484.8-19.68 485.8-20.2 486.8-20.2L486.8-20.2Q489.65-20.2 489.65-15.55L489.65-15.55Q489.65-14.05 489.42-12.78 489.2-11.5 488.9-10.35L488.9-10.35Q488.7-9.55 488.57-8.75 488.45-7.95 488.45-7.35L488.45-7.35Q488.45-4.85 490.9-4.85L490.9-4.85Q493.2-4.85 495.2-7.3 497.2-9.75 498.5-14.15L498.5-14.15 498.45-15.1Q498.35-17.6 499.32-18.9 500.3-20.2 502.2-20.2L502.2-20.2Q503.85-20.2 503.85-19.15L503.85-19.15Q503.85-18.8 503.72-18.25 503.6-17.7 503.35-16.95L503.35-16.95Q502.85-15.1 502.5-13.03 502.15-10.95 502.15-9.2L502.15-9.2Q502.15-7.25 502.75-5.98 503.35-4.7 505-4.25L505-4.25Q505.45-4.2 505.72-3.98 506-3.75 506-3.05L506-3.05Q506-1.85 505-0.7 504 0.45 502.1 0.45L502.1 0.45Q498.45 0.45 498.45-4.7L498.45-4.7Q498.45-5.6 498.6-7.4L498.6-7.4 498.5-7.45Q495.35 0.65 489.25 0.65ZM511.64 0.55L511.64 0.55Q509.84 0.55 510.04-0.65L510.04-0.65Q510.59-2.8 510.97-5.03 511.34-7.25 511.34-9.3L511.34-9.3Q511.34-11.95 511.02-13.18 510.69-14.4 510.14-14.88 509.59-15.35 508.79-15.6L508.79-15.6Q508.44-15.75 508.17-16 507.89-16.25 507.89-16.7L507.89-16.7Q507.89-17.4 508.44-18.25 508.99-19.1 510.02-19.73 511.04-20.35 512.34-20.35L512.34-20.35Q514.04-20.35 514.69-19.18 515.34-18 515.34-16.1L515.34-16.1Q515.34-14.85 515.09-13.3 514.84-11.75 514.59-10.5L514.59-10.5 514.74-10.45Q515.74-13.1 517.17-15.38 518.59-17.65 520.49-19.05 522.39-20.45 524.89-20.45L524.89-20.45Q527.54-20.45 528.94-18.85 530.34-17.25 530.34-14.85L530.34-14.85Q530.34-13.85 530.12-12.95 529.89-12.05 529.64-11.2L529.64-11.2Q529.39-10.4 529.22-9.55 529.04-8.7 529.04-7.85L529.04-7.85Q529.04-5 531.74-4L531.74-4Q532.44-3.7 532.44-3.1L532.44-3.1Q532.44-2.65 532.14-1.8 531.84-0.95 531.04-0.23 530.24 0.5 528.69 0.5L528.69 0.5Q526.69 0.5 525.59-0.93 524.49-2.35 524.49-4.55L524.49-4.55Q524.49-5.8 524.77-7.08 525.04-8.35 525.34-9.45L525.34-9.45Q525.54-10.3 525.72-11.13 525.89-11.95 525.89-12.6L525.89-12.6Q525.89-14.9 523.49-14.9L523.49-14.9Q521.44-14.9 519.89-13.38 518.34-11.85 517.24-9.55 516.14-7.25 515.44-4.9L515.44-4.9 515.44-3.7Q515.44-1.85 514.42-0.65 513.39 0.55 511.64 0.55ZM539.84-24.85L539.84-24.85Q538.44-24.9 537.59-25.7 536.74-26.5 536.74-27.95L536.74-27.95Q536.79-29.5 537.79-30.48 538.79-31.45 540.34-31.4L540.34-31.4Q541.79-31.35 542.62-30.55 543.44-29.75 543.39-28.3L543.39-28.3Q543.34-26.8 542.39-25.83 541.44-24.85 539.84-24.85ZM539.89 0.5L539.89 0.5Q538.39 0.5 537.54-0.33 536.69-1.15 536.69-3.15L536.69-3.15Q536.69-4.3 536.92-5.4 537.14-6.5 537.44-7.55L537.44-7.55Q537.79-8.65 538.02-9.8 538.24-10.95 538.24-12.25L538.24-12.25Q538.24-13.15 537.99-13.98 537.74-14.8 536.89-15.2L536.89-15.2Q536.24-15.55 535.77-15.93 535.29-16.3 535.29-16.9L535.29-16.9Q535.29-17.6 535.94-18.4 536.59-19.2 537.67-19.78 538.74-20.35 539.89-20.35L539.89-20.35Q541.14-20.35 541.72-19.7 542.29-19.05 542.49-18.05 542.69-17.05 542.69-16L542.69-16Q542.69-14.4 542.44-12.88 542.19-11.35 541.94-10.05L541.94-10.05Q541.74-9.1 541.64-8.3 541.54-7.5 541.54-6.8L541.54-6.8Q541.54-5.55 542.14-4.93 542.74-4.3 543.84-3.75L543.84-3.75Q544.29-3.5 544.29-3L544.29-3Q544.29-2.6 543.89-1.75 543.49-0.9 542.52-0.2 541.54 0.5 539.89 0.5ZM555.34 0.65L555.34 0.65Q552.29 0.65 550.96-1.38 549.64-3.4 549.64-6.6L549.64-6.6Q549.64-7.75 549.76-8.85 549.89-9.95 550.04-11.05L550.04-11.05Q550.19-12.15 550.34-13.2 550.49-14.25 550.59-15.2L550.59-15.2Q549.54-14.9 548.49-14.9L548.49-14.9Q547.39-14.9 547.39-15.8L547.39-15.8Q547.39-16.75 548.24-18.13 549.09-19.5 550.36-20.85 551.64-22.2 552.91-23.13 554.19-24.05 555.09-24.05L555.09-24.05Q556.19-24.05 556.19-22.15L556.19-22.15Q556.19-21.65 556.11-21.13 556.04-20.6 555.94-20.05L555.94-20.05Q556.89-20.25 557.86-20.4 558.84-20.55 559.74-20.55L559.74-20.55Q560.89-20.55 561.51-20.15 562.14-19.75 562.14-18.6L562.14-18.6Q562.14-17.4 561.56-16.2 560.99-15 560.29-15L560.29-15Q560.14-15 559.79-15.05 559.44-15.1 558.94-15.2L558.94-15.2Q558.29-15.35 557.29-15.5 556.29-15.65 554.89-15.65L554.89-15.65Q554.54-14.1 554.26-12.48 553.99-10.85 553.99-9.55L553.99-9.55Q553.99-6.65 555.44-5.6 556.89-4.55 559.64-4.55L559.64-4.55Q560.49-4.55 560.84-4.28 561.19-4 561.19-3.3L561.19-3.3Q561.19-1.65 559.49-0.5 557.79 0.65 555.34 0.65ZM568.99-24.85L568.99-24.85Q567.59-24.9 566.74-25.7 565.88-26.5 565.88-27.95L565.88-27.95Q565.93-29.5 566.93-30.48 567.93-31.45 569.49-31.4L569.49-31.4Q570.93-31.35 571.76-30.55 572.59-29.75 572.53-28.3L572.53-28.3Q572.49-26.8 571.53-25.83 570.59-24.85 568.99-24.85ZM569.03 0.5L569.03 0.5Q567.53 0.5 566.68-0.33 565.84-1.15 565.84-3.15L565.84-3.15Q565.84-4.3 566.06-5.4 566.28-6.5 566.59-7.55L566.59-7.55Q566.93-8.65 567.16-9.8 567.38-10.95 567.38-12.25L567.38-12.25Q567.38-13.15 567.13-13.98 566.88-14.8 566.03-15.2L566.03-15.2Q565.38-15.55 564.91-15.93 564.43-16.3 564.43-16.9L564.43-16.9Q564.43-17.6 565.09-18.4 565.74-19.2 566.81-19.78 567.88-20.35 569.03-20.35L569.03-20.35Q570.28-20.35 570.86-19.7 571.43-19.05 571.63-18.05 571.84-17.05 571.84-16L571.84-16Q571.84-14.4 571.59-12.88 571.34-11.35 571.09-10.05L571.09-10.05Q570.88-9.1 570.78-8.3 570.68-7.5 570.68-6.8L570.68-6.8Q570.68-5.55 571.28-4.93 571.88-4.3 572.99-3.75L572.99-3.75Q573.43-3.5 573.43-3L573.43-3Q573.43-2.6 573.03-1.75 572.63-0.9 571.66-0.2 570.68 0.5 569.03 0.5ZM585.03 0.65L585.03 0.65Q581.23 0.65 579.11-1.53 576.98-3.7 576.98-7.6L576.98-7.6Q576.98-11.15 578.53-14.05 580.08-16.95 582.71-18.68 585.33-20.4 588.48-20.4L588.48-20.4Q591.48-20.4 593.28-18.93 595.08-17.45 595.08-15L595.08-15Q595.08-13.05 593.88-11.4 592.68-9.75 590.68-8.78 588.68-7.8 586.23-7.8L586.23-7.8Q583.23-7.8 581.33-9.15L581.33-9.15Q581.38-6.85 582.91-5.45 584.43-4.05 586.83-4.05L586.83-4.05Q588.28-4.05 589.81-4.58 591.33-5.1 592.43-6L592.43-6Q593.13-6.6 593.73-6.6L593.73-6.6Q594.23-6.6 594.56-6.28 594.88-5.95 594.88-5.45L594.88-5.45Q594.88-4.35 592.98-2.55L592.98-2.55Q589.63 0.65 585.03 0.65ZM585.78-11.1L585.78-11.1Q587.58-11.1 588.78-11.85 589.98-12.6 589.98-13.75L589.98-13.75Q589.98-14.7 589.18-15.23 588.38-15.75 586.98-15.75L586.98-15.75Q585.13-15.75 583.76-14.78 582.38-13.8 581.78-12.05L581.78-12.05Q582.48-11.6 583.58-11.35 584.68-11.1 585.78-11.1ZM605.53 0.65L605.53 0.65Q603.68 0.65 602.08 0.1 600.48-0.45 599.48-1.45 598.48-2.45 598.48-3.85L598.48-3.85Q598.48-4.6 598.85-5.28 599.23-5.95 600.08-5.95L600.08-5.95Q600.53-5.95 601.03-5.7L601.03-5.7Q601.93-5.2 603.33-4.78 604.73-4.35 606.28-4.35L606.28-4.35Q608.03-4.35 609.38-4.85 610.73-5.35 610.73-6.25L610.73-6.25Q610.73-6.95 609.7-7.25 608.68-7.55 606.28-7.9L606.28-7.9Q604.63-8.2 603.08-8.6 601.53-9 600.53-9.98 599.53-10.95 599.53-12.85L599.53-12.85Q599.53-14.7 600.55-16.43 601.58-18.15 603.63-19.3 605.68-20.45 608.63-20.45L608.63-20.45Q610.18-20.45 611.63-20.1 613.08-19.75 614.03-19.05 614.98-18.35 614.98-17.3L614.98-17.3Q614.98-16.4 614.35-15.65 613.73-14.9 612.9-14.43 612.08-13.95 611.53-13.95L611.53-13.95Q611.13-13.95 610.58-14.5L610.58-14.5Q609.73-15.2 608.7-15.48 607.68-15.75 606.68-15.75L606.68-15.75Q605.18-15.75 604.25-15.3 603.33-14.85 603.33-14.15L603.33-14.15Q603.33-13.5 604.1-13.1 604.88-12.7 606.03-12.53 607.18-12.35 608.23-12.2L608.23-12.2Q611.13-11.8 612.83-10.83 614.53-9.85 614.53-7.4L614.53-7.4Q614.53-5.5 613.45-3.63 612.38-1.75 610.35-0.55 608.33 0.65 605.53 0.65Z" opacity="1" transform="matrix(1,0,0,1,0,0)" fill="#0e5ddd" class="slogan-text-1" data-fill-palette-color="secondary" id="text-1"></path></svg></g></svg></g></svg></g></svg></g><g></g></svg></g><defs></defs></svg><rect width="395.52" height="134.892594843472" fill="none" stroke="none" visibility="hidden"></rect></g></svg></g></svg>